<svg width="201" height="41" viewBox="0 0 201 41" fill="none" xmlns="http://www.w3.org/2000/svg">
<path d="M30.1683 18.1927C29.0347 19.3279 28.4682 20.9068 28.6228 22.5L28.5963 22.4735C28.7553 24.3484 28.0758 26.1976 26.7392 27.528C25.4025 28.8585 23.5446 29.5347 21.6611 29.3765L21.6876 29.4029C19.4071 29.1917 17.2382 30.4264 16.2649 32.4902C15.2917 34.5539 15.723 37.0035 17.3433 38.6148C18.9636 40.2262 21.4251 40.6532 23.4976 39.6826C25.5701 38.712 26.8086 36.5522 26.5943 34.2824L26.6224 34.3088C26.4634 32.434 27.1428 30.5847 28.4794 29.2543C29.8161 27.9239 31.674 27.2476 33.5576 27.4059L33.5295 27.3794C36.0359 27.6038 38.3682 26.0826 39.1621 23.7056C39.956 21.3287 39.0029 18.7204 36.8604 17.4064C34.7179 16.0925 31.9487 16.418 30.1727 18.1927H30.1683Z" fill="#5454D4"/>
<path d="M19.269 25.9353L19.241 25.9088C20.8426 26.0695 22.432 25.5057 23.5707 24.3732C24.7094 23.2407 25.277 21.659 25.1168 20.0647L25.1449 20.0912C24.9859 18.2163 25.6653 16.3671 27.002 15.0367C28.3386 13.7062 30.1965 13.03 32.0801 13.1882L32.052 13.1618C34.3328 13.375 36.503 12.1416 37.4777 10.0781C38.4525 8.01464 38.0224 5.56435 36.4026 3.95202C34.7827 2.3397 32.321 1.91166 30.2479 2.88188C28.1748 3.8521 26.9356 6.01217 27.1498 8.28236L27.1232 8.25442C27.2827 10.1294 26.6035 11.979 25.2667 13.3095C23.93 14.64 22.0717 15.3161 20.188 15.1574L20.2146 15.1853C18.613 15.0247 17.0235 15.5884 15.8848 16.7209C14.7461 17.8535 14.1786 19.4351 14.3387 21.0294L14.3122 21.0029C14.4706 22.8776 13.791 24.7266 12.4545 26.0569C11.118 27.3872 9.26041 28.0636 7.37695 27.9059L7.40355 27.9324C5.12275 27.7192 2.95259 28.9526 1.97784 31.016C1.00309 33.0795 1.43312 35.5298 3.05298 37.1421C4.67284 38.7544 7.13458 39.1825 9.20769 38.2122C11.2808 37.242 12.5199 35.082 12.3058 32.8118L12.3338 32.8382C12.1748 30.9634 12.8543 29.1142 14.1909 27.7837C15.5275 26.4533 17.3854 25.777 19.269 25.9353Z" fill="#FF7143"/>
<path d="M9.3671 22.9838C10.5009 21.8488 11.067 20.2695 10.911 18.6765L10.9391 18.7029C10.78 16.8276 11.4598 14.9778 12.7971 13.6472C14.1345 12.3167 15.9932 11.6408 17.8773 11.8L17.8492 11.7735C20.1292 11.9861 22.2983 10.7529 23.2725 8.69004C24.2466 6.62724 23.8166 4.17791 22.1974 2.56618C20.5781 0.954447 18.1173 0.526442 16.0449 1.49607C13.9724 2.4657 12.7334 4.62473 12.947 6.89412L12.9204 6.86765C13.0794 8.74248 12.4 10.5917 11.0633 11.9222C9.72669 13.2526 7.86879 13.9289 5.9852 13.7706L6.01179 13.7971C3.50543 13.5733 1.17365 15.0949 0.380232 17.4719C-0.413187 19.8488 0.540169 22.4568 2.68271 23.7705C4.82525 25.0841 7.59419 24.7584 9.37006 22.9838H9.3671Z" fill="#5454D4"/>
<path d="M55.1344 8.31618H59.5224V29.5706H55.1344V8.31618Z" fill="#19191B"/>
<path fill-rule="evenodd" clip-rule="evenodd" d="M66.7716 15.1418C63.8758 16.3459 61.995 19.169 62.0075 22.2926C61.9923 24.3409 62.8052 26.3092 64.2632 27.7546C65.7213 29.2001 67.702 30.0013 69.7598 29.9779C72.8981 29.9779 75.7268 28.0946 76.9248 25.2074C78.1229 22.3203 77.4539 18.999 75.2304 16.7947C73.0068 14.5903 69.6673 13.9378 66.7716 15.1418ZM69.6974 19.0359C71.5438 19.0019 73.0728 20.4552 73.1239 22.2926C73.1738 23.2035 72.8386 24.0937 72.1996 24.7476C71.5606 25.4015 70.6759 25.7596 69.7597 25.7353C67.913 25.7354 66.4111 24.2544 66.394 22.4163C66.3769 20.5783 67.851 19.0698 69.6974 19.0359Z" fill="#19191B"/>
<path fill-rule="evenodd" clip-rule="evenodd" d="M95.0007 28.8368V15.0132L90.7294 15.0103V16.4956C89.6874 15.2266 88.1027 14.5244 86.458 14.6029C82.446 14.7289 79.2592 18.0025 79.2592 21.9978C79.2592 25.9931 82.446 29.2667 86.458 29.3926C88.1027 29.4712 89.6874 28.769 90.7294 27.5V28.8309C90.8028 29.709 90.4714 30.5727 89.8285 31.1785C89.1857 31.7843 88.3011 32.0665 87.4243 31.9456C86.0372 32.0865 84.7081 31.3555 84.0896 30.1118L80.3458 32.2662C81.8105 34.6416 84.4857 36.0036 87.278 35.7956C91.1682 35.7956 95.0007 33.7279 95.0007 28.8368ZM88.6457 18.6356C89.9657 19.2281 90.7912 20.56 90.7308 22C90.7581 22.9298 90.3892 23.8278 89.7151 24.4722C89.041 25.1165 88.1246 25.4471 87.1923 25.3824C85.7443 25.3841 84.4407 24.5093 83.8993 23.1725C83.3579 21.8358 83.6875 20.3056 84.7319 19.3073C85.7763 18.309 87.3257 18.043 88.6457 18.6356Z" fill="#19191B"/>
<path fill-rule="evenodd" clip-rule="evenodd" d="M102.25 15.1418C99.354 16.3459 97.4732 19.169 97.4858 22.2926C97.4706 24.3409 98.2834 26.3092 99.7415 27.7546C101.2 29.2001 103.18 30.0013 105.238 29.9779C108.376 29.9779 111.205 28.0946 112.403 25.2074C113.601 22.3203 112.932 18.999 110.709 16.7947C108.485 14.5903 105.146 13.9378 102.25 15.1418ZM105.176 19.0359C107.022 19.0019 108.551 20.4552 108.602 22.2926C108.652 23.2035 108.317 24.0937 107.678 24.7476C107.039 25.4015 106.154 25.7596 105.238 25.7353C103.391 25.7354 101.889 24.2544 101.872 22.4163C101.855 20.5783 103.329 19.0698 105.176 19.0359Z" fill="#19191B"/>
<path fill-rule="evenodd" clip-rule="evenodd" d="M116.662 8.69066C115.678 9.09628 115.037 10.0518 115.037 11.1118C115.051 12.5531 116.221 13.718 117.669 13.7324C118.734 13.7324 119.694 13.0939 120.102 12.1146C120.509 11.1354 120.284 10.0082 119.531 9.25873C118.778 8.50925 117.646 8.28504 116.662 8.69066ZM119.869 15.0132H115.48L115.474 29.5721H119.869V15.0132Z" fill="#19191B"/>
<path fill-rule="evenodd" clip-rule="evenodd" d="M136.926 27.5823C138.238 26.1398 138.919 24.236 138.816 22.2926C138.919 20.349 138.24 18.4446 136.927 17.0016C135.615 15.5587 133.778 14.6964 131.825 14.6059C130.179 14.5165 128.579 15.1682 127.468 16.3809V15.0132H123.08V35.3941H127.468V28.2015C128.578 29.4151 130.178 30.0674 131.825 29.9779C133.778 29.887 135.614 29.0248 136.926 27.5823ZM130.89 18.9152C132.801 18.8834 134.38 20.391 134.428 22.2926C134.494 23.2377 134.152 24.166 133.488 24.8442C132.823 25.5225 131.9 25.8862 130.949 25.8441C129.038 25.8443 127.484 24.3108 127.468 22.4086C127.452 20.5064 128.979 18.947 130.89 18.9152Z" fill="#19191B"/>
<path d="M152.357 25.2029C152.357 28.5515 149.433 29.9779 146.274 29.9779C143.663 30.2134 141.171 28.8407 139.985 26.5132L143.786 24.3588C144.103 25.4424 145.138 26.1582 146.269 26.0765C147.321 26.0765 147.848 25.7559 147.848 25.175C147.848 23.5721 140.651 24.4176 140.651 19.3809C140.651 16.2059 143.343 14.6059 146.385 14.6059C148.714 14.5325 150.899 15.7258 152.088 17.7206L148.344 19.7294C148.009 18.9498 147.237 18.4455 146.385 18.4485C145.624 18.4485 145.156 18.7426 145.156 19.2632C145.162 20.9235 152.357 19.8162 152.357 25.2029Z" fill="#19191B"/>
<path d="M168.386 15.0132V29.5721H163.998V28.2029C162.971 29.4284 161.416 30.0892 159.817 29.9794C156.862 29.9794 154.35 27.8838 154.35 23.95V15.0132H158.738V23.3103C158.664 24.0121 158.904 24.7109 159.394 25.2208C159.884 25.7308 160.575 26.0002 161.283 25.9574C162.891 25.9574 164.003 25.0265 164.003 22.9588V15.0176L168.386 15.0132Z" fill="#19191B"/>
<path d="M193.547 20.6323V29.5706H189.159V21.0103C189.159 19.5544 188.457 18.6235 187.054 18.6235C185.591 18.6235 184.771 19.6426 184.771 21.3603V29.5706H180.385V21.0103C180.385 19.5544 179.683 18.6235 178.278 18.6235C176.815 18.6235 175.997 19.6426 175.997 21.3603V29.5706H171.608V15.0118H175.997V16.35C176.921 15.1437 178.397 14.4864 179.916 14.6044C181.444 14.53 182.898 15.2592 183.747 16.525C184.736 15.2017 186.338 14.4764 187.989 14.6044C191.347 14.6059 193.547 16.9926 193.547 20.6323Z" fill="#19191B"/>
<path d="M197.259 14.9235C199.057 14.9235 200.515 13.4724 200.515 11.6824C200.515 9.8923 199.057 8.44118 197.259 8.44118C195.46 8.44118 194.002 9.8923 194.002 11.6824C194.002 13.4724 195.46 14.9235 197.259 14.9235Z" fill="#19191B"/>
</svg>
